<?xml version="1.0" encoding="utf-8"?>
<!-- Generator: Adobe Illustrator 15.0.0, SVG Export Plug-In . SVG Version: 6.00 Build 0)  -->
<!DOCTYPE svg PUBLIC "-//W3C//DTD SVG 1.1//EN" "http://www.w3.org/Graphics/SVG/1.1/DTD/svg11.dtd">
<svg version="1.1" id="Layer_1" xmlns="http://www.w3.org/2000/svg" xmlns:xlink="http://www.w3.org/1999/xlink" x="0px" y="0px"
	 width="350.665px" height="71.835px" viewBox="0 0 350.665 71.835" enable-background="new 0 0 350.665 71.835"
	 xml:space="preserve">
<g>
	<g>
		<g>
			<g>
				<path fill="#333333" d="M69.384,21.147c-0.58,0-1.144,0.07-1.694,0.169c-1.155-4.778-5.432-8.341-10.564-8.341
					c-6.018,0-10.896,4.879-10.896,10.896c0,0.751-0.61,1.362-1.362,1.362s-1.362-0.611-1.362-1.362c0-1.694,0.348-3.301,0.917-4.8
					c-1.141-0.406-2.361-0.648-3.642-0.648c-6.017,0-10.896,4.879-10.896,10.896c0,6.017,4.879,10.896,10.896,10.896h28.603
					c5.268,0,9.534-4.266,9.534-9.534S74.651,21.147,69.384,21.147"/>
				<polygon fill="#333333" points="60.004,42.94 49.343,42.94 43.505,51.112 51.285,51.112 43.505,62.008 65.298,48 55.955,48 				
					"/>
			</g>
		</g>
	</g>
</g>
<text transform="matrix(1 0 0 1 96.7114 52.5952)" fill="#333333" font-family="'AmericanTypewriter'" font-size="49.639">WX News</text>
</svg>
